<?xml version="1.0" encoding="UTF-8"?>
<svg version="1.1" xmlns="http://www.w3.org/2000/svg" width="48" height="48">
<path d="M0 0 C4.41510774 0.48713098 6.30446645 1.85053197 9.3125 5.0625 C10.00988281 5.79597656 10.70726563 6.52945312 11.42578125 7.28515625 C12.20501953 8.13400391 12.20501953 8.13400391 13 9 C17.07441476 7.19925419 19.81273276 4.51125185 23 1.4609375 C25 0 25 0 29 0 C32.2401092 2.70633398 33.69854399 4.4528723 34.50976562 8.61621094 C34.74684975 11.71788974 34.78030724 14.76471994 34.75 17.875 C34.80414063 19.45087891 34.80414063 19.45087891 34.859375 21.05859375 C34.859375 27.95990641 33.59812903 31.67884235 28.79785156 36.67626953 C27 38 27 38 24 38 C23.505 28.595 23.505 28.595 23 19 C21.948125 20.175625 20.89625 21.35125 19.8125 22.5625 C16.37998388 25.9536605 16.37998388 25.9536605 13.4375 26.3125 C11 25 11 25 5 19 C4.67 25.27 4.34 31.54 4 38 C-0.55294128 36.86176468 -1.89614742 35.77143037 -4.75195312 32.2421875 C-7.16998289 27.89805892 -6.86191861 23.35602426 -6.75 18.5 C-6.77320313 17.49324219 -6.79640625 16.48648437 -6.8203125 15.44921875 C-6.77055445 9.121653 -5.82209374 5.62836953 -1.28613281 1.12695312 C-0.86170898 0.75505859 -0.43728516 0.38316406 0 0 Z " fill="#A4D5A7" transform="translate(10,5)"/>
<path d="M0 0 C3.2401092 2.70633398 4.69854399 4.4528723 5.50976562 8.61621094 C5.74684975 11.71788974 5.78030724 14.76471994 5.75 17.875 C5.80414063 19.45087891 5.80414063 19.45087891 5.859375 21.05859375 C5.859375 27.95990641 4.59812903 31.67884235 -0.20214844 36.67626953 C-2 38 -2 38 -5 38 C-5.33 31.73 -5.66 25.46 -6 19 C-7.11375 20.155 -8.2275 21.31 -9.375 22.5 C-11.2734375 24.46875 -11.2734375 24.46875 -13 26 C-13.66 26 -14.32 26 -15 26 C-16.62358454 12.78172589 -16.62358454 12.78172589 -13.98486328 8.26074219 C-10.17645304 3.69755076 -6.11373602 0 0 0 Z " fill="#FEEBB2" transform="translate(39,5)"/>
<path d="M0 0 C0.20537903 3.49911695 0.32829941 6.99666666 0.4375 10.5 C0.49615234 11.48226563 0.55480469 12.46453125 0.61523438 13.4765625 C0.74511116 19.04271027 0.3045835 22.36959924 -3.33984375 26.71875 C-5.19116211 28.65429688 -5.19116211 28.65429688 -7 30 C-7.99 30 -8.98 30 -10 30 C-11.47641673 11.54857651 -11.47641673 11.54857651 -8.03125 5.6015625 C-2.30279126 0 -2.30279126 0 0 0 Z " fill="#EF5450" transform="translate(44,13)"/>
<path d="M0 0 C1.1055189 0.93590504 2.20935453 1.87379858 3.3125 2.8125 C3.92738281 3.33457031 4.54226562 3.85664063 5.17578125 4.39453125 C5.77777344 4.92433594 6.37976563 5.45414063 7 6 C7.56501221 6.45995361 8.13002441 6.91990723 8.7121582 7.39379883 C10.48969612 9.61075085 10.344138 11.07240979 10.29296875 13.88671875 C10.28330078 14.82451172 10.27363281 15.76230469 10.26367188 16.72851562 C10.23853516 17.70498047 10.21339844 18.68144531 10.1875 19.6875 C10.17396484 20.67556641 10.16042969 21.66363281 10.14648438 22.68164062 C10.11112203 25.12164231 10.06177033 27.56054719 10 30 C5.7730642 29.2430996 3.88218309 27.51751729 1.22167969 24.24169922 C-1.13354194 19.92002756 -0.61817304 15.35425594 -0.375 10.5625 C-0.34792969 9.54478516 -0.32085937 8.52707031 -0.29296875 7.47851562 C-0.22268507 4.98344487 -0.12437201 2.49286153 0 0 Z " fill="#01838F" transform="translate(4,13)"/>
</svg>
